<svg width="25" height="25" viewBox="0 0 25 25" fill="none" xmlns="http://www.w3.org/2000/svg">
<g clip-path="url(#clip0_136_222)">
<path d="M21.3506 16.9833V8.9833C21.3502 8.63258 21.2576 8.28811 21.0821 7.98446C20.9066 7.68082 20.6543 7.42866 20.3506 7.2533L13.3506 3.2533C13.0465 3.07776 12.7017 2.98535 12.3506 2.98535C11.9995 2.98535 11.6546 3.07776 11.3506 3.2533L4.35059 7.2533C4.04685 7.42866 3.79457 7.68082 3.61905 7.98446C3.44353 8.28811 3.35095 8.63258 3.35059 8.9833V16.9833C3.35095 17.334 3.44353 17.6785 3.61905 17.9821C3.79457 18.2858 4.04685 18.5379 4.35059 18.7133L11.3506 22.7133C11.6546 22.8888 11.9995 22.9813 12.3506 22.9813C12.7017 22.9813 13.0465 22.8888 13.3506 22.7133L20.3506 18.7133C20.6543 18.5379 20.9066 18.2858 21.0821 17.9821C21.2576 17.6785 21.3502 17.334 21.3506 16.9833Z" stroke="white" stroke-width="2" stroke-linecap="round" stroke-linejoin="round"/>
<path d="M3.62061 7.94336L12.3506 12.9934L21.0806 7.94336" stroke="white" stroke-width="2" stroke-linecap="round" stroke-linejoin="round"/>
<path d="M12.3506 23.0634V12.9834" stroke="white" stroke-width="2" stroke-linecap="round" stroke-linejoin="round"/>
</g>
<defs>
<clipPath id="clip0_136_222">
<rect width="24" height="24" fill="white" transform="translate(0.350586 0.983398)"/>
</clipPath>
</defs>
</svg>
