<?xml version="1.0" encoding="UTF-8"?>
<svg xmlns="http://www.w3.org/2000/svg" viewBox="0 0 1920 625.79">
  <defs>
    <style>
      .cls-1 {
        fill: #985277;
      }

      .cls-2 {
        fill: #5c374c;
      }
    </style>
  </defs>
  <g id="Layer_1" data-name="Layer 1">
    <rect class="cls-1" x="111.87" y="327.05" width="1639.13" height="298.74"/>
    <path class="cls-2" d="m0,625.79h503.87c-7.8-56.11-33.3-209.5-81.37-231.5-59-27-150,41-150,41,0,0-16-212-43-284C207.15,91.7,52.62,22.19,0,0v625.79Z"/>
  </g>
  <g id="Layer_3" data-name="Layer 3">
    <path class="cls-2" d="m1920,25.67c-26.74-11.8-61.16-24.55-75.5-19.38-25,9-165.64,326.91-165.64,326.91,0,0-52.36-57.91-63.36-51.91-9.4,5.13-137.21,268.27-174.1,344.5h478.6V25.67Z"/>
  </g>
</svg>