<svg width="609" height="609" viewBox="0 0 609 609" fill="none" xmlns="http://www.w3.org/2000/svg">
<circle cx="304.5" cy="304.5" r="304.5" fill="white"/>
<path d="M291.572 279.262V279.193L398.714 223.669V115.07V114.646L331.326 79V89.167L368.262 108.405V229.09L291.572 269.462V253.358V252.3V144.639H261.12V443.964L238 456.264V466.414L319.219 423.681V413.05L291.572 427.76V289.753L368.548 329.844V473.025L278.602 520.378V530L399 467.607V345.707V336.509V336.085L291.572 279.262Z" fill="black"/>
<path d="M160 507L206 483.028V473L160 497.243V507Z" fill="black"/>
<path d="M319 430L238 473.389V483L319 440.599V430Z" fill="black"/>
<path d="M144.5 502C139.805 502 136 505.805 136 510.5C136 515.195 139.805 519 144.5 519C149.195 519 153 515.195 153 510.5C153 505.805 149.195 502 144.5 502Z" fill="black"/>
<path d="M218 464C213.581 464 210 467.581 210 472C210 476.419 213.581 480 218 480C222.419 480 226 476.419 226 472C226 467.581 222.419 464 218 464Z" fill="black"/>
<path d="M349.001 412.766C350.438 409.297 348.791 405.32 345.322 403.883C341.853 402.446 337.876 404.094 336.44 407.562C335.003 411.031 336.65 415.008 340.119 416.445C343.588 417.882 347.565 416.234 349.001 412.766Z" fill="black"/>
</svg>
