<?xml version="1.0" encoding="UTF-8"?>
<svg id="bulle_6" data-name="bulle 6" xmlns="http://www.w3.org/2000/svg" viewBox="0 0 1165.24 2000">
  <defs>
    <style>
      .cls-1 {
        fill: #000;
      }
    </style>
  </defs>
  <polygon class="cls-1" points="687.09 888.08 687.09 887.77 1163.96 641.55 1163.96 159.96 1163.96 158.08 864.03 0 864.03 45.09 1028.43 130.4 1028.43 665.59 687.09 844.62 687.09 773.21 687.09 768.51 687.09 291.08 551.55 291.08 551.55 1618.46 448.65 1673.01 448.65 1718.02 810.14 1528.52 810.14 1481.37 687.09 1546.61 687.09 934.6 1029.7 1112.39 1029.7 1747.34 629.36 1957.33 629.36 2000 1165.24 1723.31 1165.24 1182.74 1165.24 1141.95 1165.24 1140.07 687.09 888.08"/>
  <polygon class="cls-1" points="105.42 1897.96 306.84 1792.37 306.84 1748.2 105.42 1854.99 105.42 1897.96"/>
  <polygon class="cls-1" points="810.08 1558.6 448.65 1751.23 448.65 1793.9 810.08 1605.66 810.08 1558.6"/>
  <circle class="cls-1" cx="36.7" cy="1913.44" r="36.7" transform="translate(-1111.88 382.64) rotate(-35.78)"/>
  <circle class="cls-1" cx="362.37" cy="1744.02" r="36.7"/>
  <circle class="cls-1" cx="915.5" cy="1468.85" r="30.17" transform="translate(-568.41 577.97) rotate(-27.09)"/>
</svg>