<svg width="80" height="80" viewBox="0 0 80 80" fill="none" xmlns="http://www.w3.org/2000/svg">
<circle cx="40" cy="40" r="38.5" stroke="black" stroke-width="3"/>
<path d="M38.3021 36.6847V36.6756L52.3765 29.3818V15.116V15.0602L43.5242 10.3777V11.7132L48.3762 14.2405V30.0939L38.3021 35.3973V33.2819V33.1429V19.0002H34.3018V58.3204L31.2646 59.9362V61.2695L41.9338 55.656V54.2594L38.3021 56.1918V38.0628L48.4138 43.3293V62.1379L36.5983 68.3584V69.6224L52.4141 61.4263V45.4131V44.2049V44.1491L38.3021 36.6847Z" fill="black"/>
<path d="M21.0181 66.601L27.0608 63.452V62.1346L21.0181 65.3193V66.601Z" fill="black"/>
<path d="M41.905 56.486L31.2646 62.1857V63.4483L41.905 57.8784V56.486Z" fill="black"/>
<path d="M18.9818 65.9442C18.3651 65.9442 17.8652 66.4441 17.8652 67.0608C17.8652 67.6775 18.3651 68.1774 18.9818 68.1774C19.5985 68.1774 20.0984 67.6775 20.0984 67.0608C20.0984 66.4441 19.5985 65.9442 18.9818 65.9442Z" fill="black"/>
<path d="M28.6373 60.9524C28.0569 60.9524 27.5864 61.4229 27.5864 62.0033C27.5864 62.5837 28.0569 63.0542 28.6373 63.0542C29.2178 63.0542 29.6882 62.5837 29.6882 62.0033C29.6882 61.4229 29.2178 60.9524 28.6373 60.9524Z" fill="black"/>
<path d="M45.8459 54.2221C46.0347 53.7664 45.8183 53.244 45.3626 53.0553C44.9069 52.8665 44.3845 53.0829 44.1958 53.5386C44.007 53.9942 44.2234 54.5167 44.6791 54.7054C45.1348 54.8942 45.6572 54.6778 45.8459 54.2221Z" fill="black"/>
</svg>
